<?xml version="1.0" encoding="UTF-8" standalone="no"?>
<!-- Uploaded to: SVG Repo, www.svgrepo.com, Generator: SVG Repo Mixer Tools -->

<svg
   version="1.1"
   id="Layer_1"
   width="800px"
   height="800px"
   viewBox="0 0 37 32"
   enable-background="new 0 0 37 32"
   xml:space="preserve"
   sodipodi:docname="chat.svg"
   inkscape:version="1.1.2 (b8e25be833, 2022-02-05)"
   xmlns:inkscape="http://www.inkscape.org/namespaces/inkscape"
   xmlns:sodipodi="http://sodipodi.sourceforge.net/DTD/sodipodi-0.dtd"
   xmlns="http://www.w3.org/2000/svg"
   xmlns:svg="http://www.w3.org/2000/svg"><defs
   id="defs17">
	
	
	
	
	
</defs><sodipodi:namedview
   id="namedview15"
   pagecolor="#ffffff"
   bordercolor="#666666"
   borderopacity="1.0"
   inkscape:pageshadow="2"
   inkscape:pageopacity="0.0"
   inkscape:pagecheckerboard="0"
   showgrid="false"
   inkscape:zoom="0.82"
   inkscape:cx="400"
   inkscape:cy="400"
   inkscape:window-width="1920"
   inkscape:window-height="1009"
   inkscape:window-x="-8"
   inkscape:window-y="-8"
   inkscape:window-maximized="1"
   inkscape:current-layer="layer1" />

<g
   inkscape:groupmode="layer"
   id="layer1"
   inkscape:label="Layer 1"
   style="display:inline"><path
     sodipodi:type="star"
     style="fill:#ffffe5;stroke-linecap:round;stroke-miterlimit:2.5;paint-order:fill markers stroke;fill-opacity:1;stroke:#8c2f1c;stroke-opacity:1;stroke-width:1.65274918;stroke-dasharray:none"
     id="path1558"
     inkscape:flatsided="false"
     sodipodi:sides="2"
     sodipodi:cx="-135.36584"
     sodipodi:cy="20.731707"
     sodipodi:r1="196.61018"
     sodipodi:r2="196.61018"
     sodipodi:arg1="0.78539816"
     sodipodi:arg2="2.3561945"
     inkscape:rounded="0.15"
     inkscape:randomized="0"
     d="m 3.6585499,159.7561 c -29.4915279,29.49153 -248.5572599,29.49153 -278.0487899,0 -29.49153,-29.49153 -29.49153,-248.55726 0,-278.04879 29.49153,-29.49152 248.557263,-29.49152 278.0487908,0 29.4915272,29.491531 29.4915272,248.55726 -9e-7,278.04879 z"
     transform="matrix(0.11193471,0,0,0.11193471,33.652138,13.679403)" /></g><g
   inkscape:groupmode="layer"
   id="layer2"
   inkscape:label="Layer 2"><g
     id="g836"
     transform="matrix(0.91791806,0,0,0.91791806,1.5185155,1.3133107)"><path
       fill="#808184"
       d="m 6.371,20.055 -1.924,4.103 c -0.089,0.189 -0.05,0.416 0.098,0.564 0.096,0.097 0.224,0.147 0.354,0.147 0.071,0 0.143,-0.015 0.21,-0.046 l 6.774,-3.139 c 0.777,0.095 1.489,0.141 2.17,0.141 7.779,0 14.107,-4.896 14.107,-10.913 C 28.161,4.896 21.833,0 14.054,0 6.275,0 -0.053,4.896 -0.053,10.912 c 0,3.733 2.391,7.12 6.424,9.143 z M 14.054,1 c 7.227,0 13.107,4.446 13.107,9.912 0,5.466 -5.88,9.913 -13.107,9.913 -0.681,0 -1.396,-0.049 -2.187,-0.15 -0.092,-0.011 -0.188,0.004 -0.273,0.042 L 5.936,23.338 7.487,20.031 C 7.544,19.911 7.549,19.773 7.504,19.648 7.459,19.523 7.365,19.42 7.244,19.365 3.301,17.542 0.947,14.382 0.947,10.912 0.947,5.446 6.827,1 14.054,1 Z"
       id="path2"
       style="fill:#1d8c54;fill-opacity:1" /><path
       fill="#808184"
       d="m 7.197,13.328 c 0.162,0.039 0.327,0.059 0.491,0.059 0.617,0 1.19,-0.278 1.572,-0.763 C 9.642,12.139 9.777,11.509 9.629,10.896 9.458,10.186 8.889,9.617 8.178,9.445 7.403,9.257 6.598,9.536 6.116,10.15 c -0.382,0.485 -0.517,1.115 -0.369,1.727 0.17,0.71 0.739,1.279 1.45,1.451 z M 6.901,10.77 c 0.191,-0.243 0.478,-0.383 0.787,-0.383 0.084,0 0.17,0.011 0.255,0.031 0.344,0.083 0.63,0.369 0.713,0.713 0.076,0.317 0.011,0.628 -0.183,0.874 C 8.229,12.315 7.828,12.45 7.431,12.356 7.087,12.273 6.801,11.987 6.718,11.643 6.642,11.326 6.707,11.016 6.901,10.77 Z"
       id="path4"
       style="fill:#1d8b54;fill-opacity:1" /><path
       fill="#808184"
       d="m 13.098,13.328 c 0.162,0.039 0.327,0.059 0.491,0.059 0.617,0 1.189,-0.278 1.571,-0.763 0.382,-0.485 0.517,-1.115 0.369,-1.728 -0.171,-0.71 -0.74,-1.279 -1.451,-1.451 -0.774,-0.188 -1.579,0.091 -2.062,0.705 -0.382,0.485 -0.517,1.114 -0.37,1.727 0.171,0.709 0.741,1.279 1.452,1.451 z M 12.802,10.77 c 0.191,-0.243 0.478,-0.383 0.787,-0.383 0.084,0 0.17,0.011 0.255,0.031 0.344,0.083 0.631,0.369 0.713,0.713 0.077,0.317 0.012,0.628 -0.183,0.874 -0.243,0.311 -0.644,0.446 -1.042,0.351 -0.344,-0.083 -0.631,-0.369 -0.714,-0.713 -0.076,-0.317 -0.011,-0.627 0.184,-0.873 z"
       id="path6"
       style="fill:#1d8b54;fill-opacity:1" /><path
       fill="#808184"
       d="m 18.998,13.328 c 0.162,0.039 0.327,0.059 0.491,0.059 0.617,0 1.19,-0.278 1.572,-0.763 0.382,-0.485 0.517,-1.115 0.369,-1.728 -0.171,-0.71 -0.74,-1.279 -1.451,-1.451 -0.774,-0.188 -1.58,0.091 -2.062,0.705 -0.382,0.485 -0.517,1.114 -0.369,1.727 0.171,0.71 0.74,1.279 1.45,1.451 z M 18.702,10.77 c 0.191,-0.243 0.478,-0.383 0.787,-0.383 0.084,0 0.17,0.011 0.255,0.031 0.344,0.083 0.63,0.369 0.713,0.713 0.076,0.317 0.011,0.628 -0.183,0.874 -0.244,0.31 -0.646,0.445 -1.042,0.351 -0.344,-0.083 -0.631,-0.369 -0.714,-0.713 -0.075,-0.317 -0.01,-0.627 0.184,-0.873 z"
       id="path8"
       style="fill:#1d8b54;fill-opacity:1" /><path
       fill="#808184"
       d="m 29.908,12.218 c -0.268,-0.075 -0.543,0.073 -0.622,0.337 -0.079,0.265 0.071,0.543 0.336,0.622 3.847,1.146 6.431,4.009 6.431,7.121 0,2.683 -1.917,5.206 -5.003,6.585 -0.214,0.096 -0.333,0.327 -0.286,0.557 l 0.59,2.861 -3.17,-2.395 c -0.107,-0.08 -0.24,-0.11 -0.373,-0.096 -0.652,0.094 -1.296,0.142 -1.916,0.142 -3.661,0 -7.203,-1.87 -8.613,-4.548 -0.128,-0.245 -0.432,-0.338 -0.675,-0.21 -0.244,0.129 -0.338,0.431 -0.209,0.675 1.575,2.993 5.481,5.083 9.498,5.083 0.601,0 1.223,-0.041 1.851,-0.123 l 4.065,3.07 C 31.9,31.966 32.006,32 32.113,32 c 0.093,0 0.186,-0.025 0.267,-0.077 0.176,-0.111 0.265,-0.32 0.223,-0.523 l -0.779,-3.774 c 3.236,-1.577 5.229,-4.354 5.229,-7.327 0,-3.615 -2.804,-6.786 -7.145,-8.081 z"
       id="path10"
       style="fill:#1c538a;fill-opacity:1" /><path
       fill="#808184"
       d="m 26.632579,21.967147 c 0.102606,0.0247 0.207113,0.03737 0.310986,0.03737 0.390792,0 0.753082,-0.176078 0.99503,-0.483264 0.241949,-0.307186 0.327454,-0.706212 0.233715,-1.09447 -0.108307,-0.449696 -0.468696,-0.810086 -0.919025,-0.919025 -0.490231,-0.119075 -1.000098,0.05764 -1.306017,0.446528 -0.241948,0.307186 -0.327454,0.705578 -0.234348,1.093837 0.108306,0.449061 0.46933,0.810085 0.919659,0.919025 z M 26.4451,20.346978 c 0.120974,-0.153911 0.302752,-0.242583 0.498465,-0.242583 0.0532,0 0.107674,0.007 0.161511,0.01964 0.21788,0.05257 0.399658,0.233715 0.451595,0.451596 0.04877,0.200779 0.0076,0.397758 -0.115907,0.553569 -0.15391,0.196979 -0.407893,0.282484 -0.659976,0.222314 -0.21788,-0.05257 -0.399659,-0.233715 -0.452229,-0.451595 -0.04813,-0.20078 -0.007,-0.397126 0.116541,-0.552936 z"
       id="path6-8"
       style="fill:#1d548b;fill-opacity:1;stroke-width:0.633374" /><path
       fill="#808184"
       d="m 30.369484,21.967147 c 0.102607,0.0247 0.207113,0.03737 0.310987,0.03737 0.390791,0 0.753714,-0.176078 0.995663,-0.483264 0.241949,-0.307186 0.327455,-0.706212 0.233715,-1.09447 -0.108307,-0.449696 -0.468697,-0.810086 -0.919026,-0.919025 -0.490231,-0.119075 -1.00073,0.05764 -1.306016,0.446528 -0.241949,0.307186 -0.327454,0.705578 -0.233715,1.093837 0.108307,0.449695 0.468697,0.810085 0.918392,0.919025 z m -0.187479,-1.620169 c 0.120975,-0.153911 0.302753,-0.242583 0.498466,-0.242583 0.0532,0 0.107673,0.007 0.16151,0.01964 0.21788,0.05257 0.399025,0.233715 0.451596,0.451596 0.04814,0.200779 0.007,0.397758 -0.115908,0.553569 -0.154543,0.196346 -0.409159,0.281851 -0.659976,0.222314 -0.21788,-0.05257 -0.399658,-0.233715 -0.452228,-0.451595 -0.0475,-0.20078 -0.0063,-0.397126 0.11654,-0.552936 z"
       id="path8-3"
       style="fill:#1d548b;fill-opacity:1;stroke-width:0.633374" /><path
       fill="#808184"
       d="m 22.932578,21.967147 c 0.102607,0.0247 0.207113,0.03737 0.310986,0.03737 0.390792,0 0.753082,-0.176078 0.99503,-0.483264 0.24195,-0.307186 0.327454,-0.706212 0.233715,-1.09447 -0.108307,-0.449696 -0.468696,-0.810086 -0.919025,-0.919025 -0.490231,-0.119075 -1.000098,0.05764 -1.306017,0.446528 -0.241948,0.307186 -0.327454,0.705578 -0.234348,1.093837 0.108306,0.449061 0.46933,0.810085 0.919659,0.919025 z m -0.187479,-1.620169 c 0.120974,-0.153911 0.302753,-0.242583 0.498465,-0.242583 0.0532,0 0.107674,0.007 0.161511,0.01964 0.217881,0.05257 0.399658,0.233715 0.451596,0.451596 0.04877,0.200779 0.0076,0.397758 -0.115907,0.553569 -0.15391,0.196979 -0.407894,0.282484 -0.659976,0.222314 -0.217881,-0.05257 -0.399659,-0.233715 -0.452229,-0.451595 -0.04813,-0.20078 -0.007,-0.397126 0.116541,-0.552936 z"
       id="path6-8-7"
       style="fill:#1d548b;fill-opacity:1;stroke-width:0.633374" /></g></g></svg>
